<?xml version="1.0" encoding="UTF-8"?>
<svg id="Layer_1" xmlns="http://www.w3.org/2000/svg" version="1.1" xmlns:xlink="http://www.w3.org/1999/xlink" viewBox="0 0 613.6 613.6">
  <!-- Generator: Adobe Illustrator 30.1.0, SVG Export Plug-In . SVG Version: 2.1.1 Build 136)  -->
  <defs>
    <style>
      .st0 {
        fill: #fff;
        fill-rule: evenodd;
      }

      .st1 {
        fill: none;
      }

      .st2 {
        fill: #ff5200;
      }

      .st3 {
        clip-path: url(#clippath);
      }
    </style>
    <clipPath id="clippath">
      <rect class="st1" x="0" y="0" width="613.6" height="613.6"/>
    </clipPath>
  </defs>
  <g class="st3">
    <g>
      <path class="st2" d="M0,306.8C0,174.2,0,107.9,35.8,62.7c7.9-10,16.9-19,26.9-26.9C107.9,0,174.2,0,306.8,0s198.9,0,244.1,35.8c10,7.9,19,16.9,26.9,26.9,35.8,45.2,35.8,111.5,35.8,244.1s0,198.9-35.8,244.1c-7.9,10-16.9,19-26.9,26.9-45.2,35.8-111.5,35.8-244.1,35.8s-198.9,0-244.1-35.8c-10-7.9-19-16.9-26.9-26.9C0,505.7,0,439.4,0,306.8Z"/>
      <path class="st0" d="M327.2,241v-63.6c0-4.1-3.4-7.5-7.5-7.5-4.1,0-7.5,3.4-7.5,7.5v74.7c0,4.2,3.4,7.6,7.6,7.6h7.3c106.1,0,117.1,5.5,110.5,27.9-.3,1.1-.7,2.1-1,3.3,0,.2-.1.5-.2.7-27.9,84-103.2,189.1-125.5,219.2-2.6,3.5-7.5,4.2-10.9,1.7-.6-.5-1.2-1-1.7-1.7-13.4-18.2-46.3-63.8-76.3-115.6-2-4.7-3-15.8,30.3-15.8h40.7c2.3,0,4.1,1.8,4.1,4.1v32.9c0,3.9,2.9,7.5,6.8,7.9,2.2.2,4.4-.6,6-2.2,1.4-1.4,2.2-3.3,2.2-5.3v-44.6c0-4.3-3.5-7.7-7.7-7.7h-82.3c-14.4,0-23.1-12.3-28.8-23.4-17.9-37.6-30.7-74.6-30.7-103.8,0-74.8,59.6-142.1,142-142.1s128.9,53.3,140.1,117.8c0,.6.5,3,.6,3.5,2.9,31.7-79.6,28-114.4,28.2-2,0-3.7-1.6-3.7-3.6,0,0,0,0,0,0h0Z"/>
    </g>
  </g>
</svg>